<?xml version="1.0" encoding="UTF-8" standalone="no"?>
<svg
   xmlnsSvg="http://www.w3.org/2000/svg"
   xmlns="http://www.w3.org/2000/svg"
   width="213.75394mm"
   height="213.75394mm"
   viewBox="0 0 213.75394 213.75394"
   version="1.1"
   id="svg8">
  <defs
     id="defs2" />
  <g
     id="layer1"
     transform="translate(-79.091074,-40.44668)">
    <path
       id="path16-3"
       style="fill:#000000;fill-opacity:0;stroke:#ffffff;stroke-width:30.6669;stroke-linecap:butt;stroke-linejoin:miter;stroke-miterlimit:4;stroke-dasharray:none;stroke-opacity:1"
       d="m 162.62728,105.3042 c -44.27359,0.83845 -45.33764,30.03887 -32.67705,56.00908 l 30.34298,53.67538 c 18.67258,29.17135 32.67707,29.17135 51.34959,0 l 30.34307,-53.67538 c 12.6606,-25.97021 11.59647,-55.17063 -32.67704,-56.00908 h -23.34082 z" />
    <path
       id="path1627"
       style="fill:#ffffff;fill-opacity:1;stroke:#ffffff;stroke-width:41.8205;stroke-linecap:butt;stroke-linejoin:miter;stroke-miterlimit:4;stroke-dasharray:none;stroke-opacity:1"
       d="M 403.94531 37.130859 C 383.89643 57.179696 377.26739 86.156196 384.01562 112.13086 L 423.875 112.13086 C 430.6232 86.156196 423.99404 57.179696 403.94531 37.130859 z M 228.2168 84.029297 C 227.57284 84.021229 226.9369 84.026295 226.30859 84.042969 C 224.27286 84.096978 222.32114 84.283799 220.47461 84.609375 C 222.14316 94.07225 229.05519 103.64762 238.63281 112.13086 L 293.27344 112.13086 C 275.3947 96.291279 248.17931 84.279415 228.2168 84.029297 z M 579.67188 84.029297 C 559.70937 84.279415 532.49592 96.291279 514.61719 112.13086 L 569.25781 112.13086 C 578.83544 103.64762 585.74743 94.07225 587.41602 84.609375 C 585.56949 84.283769 583.61776 84.096993 581.58203 84.042969 C 580.95373 84.026295 580.31583 84.021229 579.67188 84.029297 z "
       transform="matrix(0.26458333,0,0,0.26458333,79.091074,40.44668)" />
    <path
       style="fill:#000000;stroke:#ffffff;stroke-width:0.264583px;stroke-linecap:butt;stroke-linejoin:miter;stroke-opacity:1;fill-opacity:0"
       d="M 185.96804,52.916667 Z"
       id="path910" />
  </g>
</svg>
